<mxfile host="Electron" modified="2024-04-14T04:31:19.006Z" agent="Mozilla/5.0 (X11; Linux x86_64) AppleWebKit/537.36 (KHTML, like Gecko) draw.io/24.1.0 Chrome/120.0.6099.109 Electron/28.1.0 Safari/537.36" etag="aA56qkcFUaoD5-ulgsZ6" version="24.1.0" type="device">
  <diagram name="Page-1" id="U_6z8lrPGuEJdTMn7q1Q">
    <mxGraphModel dx="1900" dy="1735" grid="1" gridSize="10" guides="1" tooltips="1" connect="1" arrows="1" fold="1" page="1" pageScale="1" pageWidth="850" pageHeight="1100" math="0" shadow="0">
      <root>
        <mxCell id="0" />
        <mxCell id="1" parent="0" />
        <mxCell id="wNV12Ir-IpU6dme8vjzB-14" style="edgeStyle=orthogonalEdgeStyle;rounded=0;orthogonalLoop=1;jettySize=auto;html=1;exitX=0.5;exitY=1;exitDx=0;exitDy=0;endArrow=none;endFill=0;" parent="1" source="wNV12Ir-IpU6dme8vjzB-2" target="wNV12Ir-IpU6dme8vjzB-13" edge="1">
          <mxGeometry relative="1" as="geometry" />
        </mxCell>
        <mxCell id="wNV12Ir-IpU6dme8vjzB-27" style="edgeStyle=orthogonalEdgeStyle;rounded=0;orthogonalLoop=1;jettySize=auto;html=1;exitX=1;exitY=0.5;exitDx=0;exitDy=0;entryX=0;entryY=0.5;entryDx=0;entryDy=0;endArrow=none;endFill=0;startArrow=ERmandOne;startFill=0;" parent="1" source="wNV12Ir-IpU6dme8vjzB-2" target="wNV12Ir-IpU6dme8vjzB-26" edge="1">
          <mxGeometry relative="1" as="geometry" />
        </mxCell>
        <mxCell id="NVPOL3llyWoSoOOIBoV0-2" style="edgeStyle=orthogonalEdgeStyle;rounded=0;orthogonalLoop=1;jettySize=auto;html=1;exitX=0.75;exitY=0;exitDx=0;exitDy=0;entryX=0.5;entryY=1;entryDx=0;entryDy=0;endArrow=none;endFill=0;" parent="1" source="wNV12Ir-IpU6dme8vjzB-2" target="NVPOL3llyWoSoOOIBoV0-1" edge="1">
          <mxGeometry relative="1" as="geometry" />
        </mxCell>
        <mxCell id="wNV12Ir-IpU6dme8vjzB-2" value="&lt;b&gt;&lt;font style=&quot;font-size: 15px;&quot;&gt;User&lt;/font&gt;&lt;/b&gt;" style="rounded=1;whiteSpace=wrap;html=1;fillColor=#647687;fontColor=#ffffff;strokeColor=#314354;" parent="1" vertex="1">
          <mxGeometry x="270" y="295" width="120" height="60" as="geometry" />
        </mxCell>
        <mxCell id="wNV12Ir-IpU6dme8vjzB-7" style="edgeStyle=orthogonalEdgeStyle;rounded=0;orthogonalLoop=1;jettySize=auto;html=1;exitX=1;exitY=1;exitDx=0;exitDy=0;entryX=0;entryY=0.5;entryDx=0;entryDy=0;endArrow=none;endFill=0;" parent="1" source="wNV12Ir-IpU6dme8vjzB-3" target="wNV12Ir-IpU6dme8vjzB-2" edge="1">
          <mxGeometry relative="1" as="geometry" />
        </mxCell>
        <mxCell id="wNV12Ir-IpU6dme8vjzB-3" value="&lt;u&gt;&lt;i&gt;&lt;b&gt;userId&lt;/b&gt;&lt;/i&gt;&lt;/u&gt;" style="ellipse;whiteSpace=wrap;html=1;" parent="1" vertex="1">
          <mxGeometry x="80" y="150" width="110" height="40" as="geometry" />
        </mxCell>
        <mxCell id="wNV12Ir-IpU6dme8vjzB-8" style="edgeStyle=orthogonalEdgeStyle;rounded=0;orthogonalLoop=1;jettySize=auto;html=1;exitX=0.293;exitY=1.024;exitDx=0;exitDy=0;entryX=0;entryY=0;entryDx=0;entryDy=0;exitPerimeter=0;endArrow=none;endFill=0;" parent="1" source="wNV12Ir-IpU6dme8vjzB-4" target="wNV12Ir-IpU6dme8vjzB-2" edge="1">
          <mxGeometry relative="1" as="geometry" />
        </mxCell>
        <mxCell id="wNV12Ir-IpU6dme8vjzB-4" value="email" style="ellipse;whiteSpace=wrap;html=1;" parent="1" vertex="1">
          <mxGeometry x="260" y="145" width="120" height="50" as="geometry" />
        </mxCell>
        <mxCell id="wNV12Ir-IpU6dme8vjzB-9" style="edgeStyle=orthogonalEdgeStyle;rounded=0;orthogonalLoop=1;jettySize=auto;html=1;exitX=1;exitY=0.5;exitDx=0;exitDy=0;entryX=0;entryY=0.75;entryDx=0;entryDy=0;endArrow=none;endFill=0;" parent="1" source="wNV12Ir-IpU6dme8vjzB-5" target="wNV12Ir-IpU6dme8vjzB-2" edge="1">
          <mxGeometry relative="1" as="geometry">
            <Array as="points">
              <mxPoint x="190" y="325" />
              <mxPoint x="220" y="325" />
              <mxPoint x="220" y="345" />
            </Array>
          </mxGeometry>
        </mxCell>
        <mxCell id="wNV12Ir-IpU6dme8vjzB-5" value="employeeId" style="ellipse;whiteSpace=wrap;html=1;" parent="1" vertex="1">
          <mxGeometry x="70" y="250" width="120" height="50" as="geometry" />
        </mxCell>
        <mxCell id="wNV12Ir-IpU6dme8vjzB-10" style="edgeStyle=orthogonalEdgeStyle;rounded=0;orthogonalLoop=1;jettySize=auto;html=1;exitX=1;exitY=0.5;exitDx=0;exitDy=0;entryX=0;entryY=1;entryDx=0;entryDy=0;endArrow=none;endFill=0;" parent="1" source="wNV12Ir-IpU6dme8vjzB-6" target="wNV12Ir-IpU6dme8vjzB-2" edge="1">
          <mxGeometry relative="1" as="geometry">
            <mxPoint x="360" y="350" as="targetPoint" />
          </mxGeometry>
        </mxCell>
        <mxCell id="wNV12Ir-IpU6dme8vjzB-6" value="password" style="ellipse;whiteSpace=wrap;html=1;" parent="1" vertex="1">
          <mxGeometry x="70" y="340" width="120" height="50" as="geometry" />
        </mxCell>
        <mxCell id="wNV12Ir-IpU6dme8vjzB-11" value="roleId" style="ellipse;whiteSpace=wrap;html=1;" parent="1" vertex="1">
          <mxGeometry x="80" y="430" width="120" height="50" as="geometry" />
        </mxCell>
        <mxCell id="wNV12Ir-IpU6dme8vjzB-12" style="edgeStyle=orthogonalEdgeStyle;rounded=0;orthogonalLoop=1;jettySize=auto;html=1;exitX=1;exitY=0;exitDx=0;exitDy=0;entryX=0.137;entryY=1.1;entryDx=0;entryDy=0;entryPerimeter=0;endArrow=none;endFill=0;" parent="1" source="wNV12Ir-IpU6dme8vjzB-11" target="wNV12Ir-IpU6dme8vjzB-2" edge="1">
          <mxGeometry relative="1" as="geometry" />
        </mxCell>
        <mxCell id="wNV12Ir-IpU6dme8vjzB-16" style="edgeStyle=orthogonalEdgeStyle;rounded=0;orthogonalLoop=1;jettySize=auto;html=1;exitX=0.5;exitY=1;exitDx=0;exitDy=0;entryX=0.5;entryY=0;entryDx=0;entryDy=0;endArrow=ERzeroToMany;endFill=0;" parent="1" source="wNV12Ir-IpU6dme8vjzB-13" target="wNV12Ir-IpU6dme8vjzB-15" edge="1">
          <mxGeometry relative="1" as="geometry" />
        </mxCell>
        <mxCell id="wNV12Ir-IpU6dme8vjzB-13" value="Has&amp;nbsp;" style="rhombus;whiteSpace=wrap;html=1;fillColor=#1ba1e2;strokeColor=#006EAF;fontColor=#ffffff;" parent="1" vertex="1">
          <mxGeometry x="380" y="480" width="80" height="80" as="geometry" />
        </mxCell>
        <mxCell id="wNV12Ir-IpU6dme8vjzB-20" style="edgeStyle=orthogonalEdgeStyle;rounded=0;orthogonalLoop=1;jettySize=auto;html=1;exitX=0;exitY=0.25;exitDx=0;exitDy=0;entryX=1;entryY=0.5;entryDx=0;entryDy=0;" parent="1" source="wNV12Ir-IpU6dme8vjzB-15" target="wNV12Ir-IpU6dme8vjzB-19" edge="1">
          <mxGeometry relative="1" as="geometry" />
        </mxCell>
        <mxCell id="wNV12Ir-IpU6dme8vjzB-15" value="&lt;font style=&quot;font-size: 15px;&quot;&gt;Role&lt;/font&gt;" style="rounded=0;whiteSpace=wrap;html=1;fillColor=#6d8764;fontColor=#ffffff;strokeColor=#3A5431;" parent="1" vertex="1">
          <mxGeometry x="360" y="650" width="120" height="60" as="geometry" />
        </mxCell>
        <mxCell id="wNV12Ir-IpU6dme8vjzB-19" value="&lt;b&gt;&lt;i&gt;&lt;u&gt;roleId&lt;/u&gt;&lt;/i&gt;&lt;/b&gt;" style="ellipse;whiteSpace=wrap;html=1;" parent="1" vertex="1">
          <mxGeometry x="180" y="630" width="120" height="50" as="geometry" />
        </mxCell>
        <mxCell id="wNV12Ir-IpU6dme8vjzB-22" style="edgeStyle=orthogonalEdgeStyle;rounded=0;orthogonalLoop=1;jettySize=auto;html=1;exitX=1;exitY=0;exitDx=0;exitDy=0;entryX=0;entryY=1;entryDx=0;entryDy=0;" parent="1" source="wNV12Ir-IpU6dme8vjzB-21" target="wNV12Ir-IpU6dme8vjzB-15" edge="1">
          <mxGeometry relative="1" as="geometry" />
        </mxCell>
        <mxCell id="wNV12Ir-IpU6dme8vjzB-21" value="roleName" style="ellipse;whiteSpace=wrap;html=1;" parent="1" vertex="1">
          <mxGeometry x="180" y="740" width="120" height="50" as="geometry" />
        </mxCell>
        <mxCell id="oiTjQ5BADp09H_yO9Pe6-5" style="edgeStyle=orthogonalEdgeStyle;rounded=0;orthogonalLoop=1;jettySize=auto;html=1;exitX=0.25;exitY=1;exitDx=0;exitDy=0;entryX=0.5;entryY=0;entryDx=0;entryDy=0;endArrow=none;endFill=0;" parent="1" source="wNV12Ir-IpU6dme8vjzB-23" target="oiTjQ5BADp09H_yO9Pe6-4" edge="1">
          <mxGeometry relative="1" as="geometry" />
        </mxCell>
        <mxCell id="oiTjQ5BADp09H_yO9Pe6-7" style="edgeStyle=orthogonalEdgeStyle;rounded=0;orthogonalLoop=1;jettySize=auto;html=1;exitX=0;exitY=0.75;exitDx=0;exitDy=0;entryX=0.647;entryY=0;entryDx=0;entryDy=0;entryPerimeter=0;endArrow=none;endFill=0;" parent="1" source="wNV12Ir-IpU6dme8vjzB-23" target="oiTjQ5BADp09H_yO9Pe6-6" edge="1">
          <mxGeometry relative="1" as="geometry">
            <mxPoint x="810" y="345" as="sourcePoint" />
            <mxPoint x="690" y="430" as="targetPoint" />
          </mxGeometry>
        </mxCell>
        <mxCell id="oiTjQ5BADp09H_yO9Pe6-9" style="edgeStyle=orthogonalEdgeStyle;rounded=0;orthogonalLoop=1;jettySize=auto;html=1;exitX=1;exitY=0.75;exitDx=0;exitDy=0;entryX=0;entryY=0.5;entryDx=0;entryDy=0;endArrow=none;endFill=0;" parent="1" source="wNV12Ir-IpU6dme8vjzB-23" target="oiTjQ5BADp09H_yO9Pe6-8" edge="1">
          <mxGeometry relative="1" as="geometry">
            <Array as="points">
              <mxPoint x="1050" y="345" />
              <mxPoint x="1050" y="275" />
            </Array>
          </mxGeometry>
        </mxCell>
        <mxCell id="oiTjQ5BADp09H_yO9Pe6-11" style="edgeStyle=orthogonalEdgeStyle;rounded=0;orthogonalLoop=1;jettySize=auto;html=1;exitX=1;exitY=1;exitDx=0;exitDy=0;entryX=0;entryY=0.5;entryDx=0;entryDy=0;endArrow=none;endFill=0;" parent="1" source="wNV12Ir-IpU6dme8vjzB-23" target="oiTjQ5BADp09H_yO9Pe6-10" edge="1">
          <mxGeometry relative="1" as="geometry">
            <Array as="points">
              <mxPoint x="960" y="360" />
              <mxPoint x="960" y="415" />
            </Array>
          </mxGeometry>
        </mxCell>
        <mxCell id="iSLYOYeoJY8kRqykb5ny-2" style="edgeStyle=orthogonalEdgeStyle;rounded=0;orthogonalLoop=1;jettySize=auto;html=1;exitX=0.34;exitY=0.023;exitDx=0;exitDy=0;entryX=0.5;entryY=1;entryDx=0;entryDy=0;endArrow=none;endFill=0;exitPerimeter=0;" parent="1" source="wNV12Ir-IpU6dme8vjzB-23" target="iSLYOYeoJY8kRqykb5ny-1" edge="1">
          <mxGeometry relative="1" as="geometry" />
        </mxCell>
        <mxCell id="NVPOL3llyWoSoOOIBoV0-56" style="edgeStyle=orthogonalEdgeStyle;rounded=0;orthogonalLoop=1;jettySize=auto;html=1;exitX=1;exitY=0;exitDx=0;exitDy=0;entryX=0;entryY=0.5;entryDx=0;entryDy=0;endArrow=none;endFill=0;" parent="1" source="wNV12Ir-IpU6dme8vjzB-23" target="NVPOL3llyWoSoOOIBoV0-55" edge="1">
          <mxGeometry relative="1" as="geometry">
            <mxPoint x="1000" y="90" as="targetPoint" />
            <Array as="points">
              <mxPoint x="980" y="290" />
              <mxPoint x="980" y="-110" />
            </Array>
          </mxGeometry>
        </mxCell>
        <mxCell id="NVPOL3llyWoSoOOIBoV0-72" style="edgeStyle=orthogonalEdgeStyle;rounded=0;orthogonalLoop=1;jettySize=auto;html=1;exitX=0;exitY=0.25;exitDx=0;exitDy=0;entryX=1;entryY=0.5;entryDx=0;entryDy=0;endArrow=none;endFill=0;" parent="1" source="wNV12Ir-IpU6dme8vjzB-23" target="NVPOL3llyWoSoOOIBoV0-71" edge="1">
          <mxGeometry relative="1" as="geometry">
            <mxPoint x="450" y="-80" as="targetPoint" />
            <Array as="points">
              <mxPoint x="650" y="308" />
              <mxPoint x="650" y="220" />
              <mxPoint x="560" y="220" />
              <mxPoint x="560" y="-70" />
              <mxPoint x="330" y="-70" />
            </Array>
          </mxGeometry>
        </mxCell>
        <mxCell id="NVPOL3llyWoSoOOIBoV0-91" style="edgeStyle=orthogonalEdgeStyle;rounded=0;orthogonalLoop=1;jettySize=auto;html=1;exitX=0;exitY=1;exitDx=0;exitDy=0;entryX=0.5;entryY=0;entryDx=0;entryDy=0;endArrow=none;endFill=0;startArrow=ERmandOne;startFill=0;" parent="1" source="wNV12Ir-IpU6dme8vjzB-23" target="NVPOL3llyWoSoOOIBoV0-90" edge="1">
          <mxGeometry relative="1" as="geometry">
            <Array as="points">
              <mxPoint x="700" y="360" />
              <mxPoint x="700" y="490" />
              <mxPoint x="510" y="490" />
            </Array>
          </mxGeometry>
        </mxCell>
        <mxCell id="wNV12Ir-IpU6dme8vjzB-23" value="&lt;font size=&quot;1&quot;&gt;&lt;b style=&quot;font-size: 15px;&quot;&gt;Employee&lt;/b&gt;&lt;/font&gt;" style="rounded=0;whiteSpace=wrap;html=1;fillColor=#e51400;fontColor=#ffffff;strokeColor=#B20000;" parent="1" vertex="1">
          <mxGeometry x="790" y="290" width="120" height="70" as="geometry" />
        </mxCell>
        <mxCell id="wNV12Ir-IpU6dme8vjzB-24" value="&lt;b&gt;&lt;u&gt;&lt;i&gt;employeeId&lt;/i&gt;&lt;/u&gt;&lt;/b&gt;" style="ellipse;whiteSpace=wrap;html=1;" parent="1" vertex="1">
          <mxGeometry x="670" y="150" width="120" height="50" as="geometry" />
        </mxCell>
        <mxCell id="wNV12Ir-IpU6dme8vjzB-29" style="edgeStyle=orthogonalEdgeStyle;rounded=0;orthogonalLoop=1;jettySize=auto;html=1;exitX=0.5;exitY=1;exitDx=0;exitDy=0;entryX=0;entryY=0;entryDx=0;entryDy=0;endArrow=none;endFill=0;" parent="1" source="wNV12Ir-IpU6dme8vjzB-25" target="wNV12Ir-IpU6dme8vjzB-23" edge="1">
          <mxGeometry relative="1" as="geometry" />
        </mxCell>
        <mxCell id="wNV12Ir-IpU6dme8vjzB-25" value="name" style="ellipse;whiteSpace=wrap;html=1;" parent="1" vertex="1">
          <mxGeometry x="670" y="210" width="120" height="50" as="geometry" />
        </mxCell>
        <mxCell id="wNV12Ir-IpU6dme8vjzB-28" style="edgeStyle=orthogonalEdgeStyle;rounded=0;orthogonalLoop=1;jettySize=auto;html=1;exitX=1;exitY=0.5;exitDx=0;exitDy=0;entryX=0;entryY=0.5;entryDx=0;entryDy=0;endArrow=ERmandOne;endFill=0;" parent="1" source="wNV12Ir-IpU6dme8vjzB-26" target="wNV12Ir-IpU6dme8vjzB-23" edge="1">
          <mxGeometry relative="1" as="geometry" />
        </mxCell>
        <mxCell id="wNV12Ir-IpU6dme8vjzB-26" value="is" style="rhombus;whiteSpace=wrap;html=1;fillColor=#60a917;fontColor=#ffffff;strokeColor=#2D7600;" parent="1" vertex="1">
          <mxGeometry x="540" y="285" width="80" height="80" as="geometry" />
        </mxCell>
        <mxCell id="wNV12Ir-IpU6dme8vjzB-30" style="edgeStyle=orthogonalEdgeStyle;rounded=0;orthogonalLoop=1;jettySize=auto;html=1;exitX=1;exitY=1;exitDx=0;exitDy=0;entryX=0.38;entryY=0.007;entryDx=0;entryDy=0;entryPerimeter=0;endArrow=none;endFill=0;" parent="1" source="wNV12Ir-IpU6dme8vjzB-24" target="wNV12Ir-IpU6dme8vjzB-23" edge="1">
          <mxGeometry relative="1" as="geometry">
            <Array as="points">
              <mxPoint x="772" y="210" />
              <mxPoint x="816" y="210" />
            </Array>
          </mxGeometry>
        </mxCell>
        <mxCell id="wNV12Ir-IpU6dme8vjzB-32" value="" style="edgeStyle=orthogonalEdgeStyle;rounded=0;orthogonalLoop=1;jettySize=auto;html=1;entryX=0.75;entryY=0;entryDx=0;entryDy=0;exitX=0.387;exitY=1.048;exitDx=0;exitDy=0;exitPerimeter=0;endArrow=none;endFill=0;" parent="1" source="wNV12Ir-IpU6dme8vjzB-31" target="wNV12Ir-IpU6dme8vjzB-23" edge="1">
          <mxGeometry relative="1" as="geometry" />
        </mxCell>
        <mxCell id="wNV12Ir-IpU6dme8vjzB-31" value="contact" style="ellipse;whiteSpace=wrap;html=1;" parent="1" vertex="1">
          <mxGeometry x="850" y="160" width="120" height="50" as="geometry" />
        </mxCell>
        <mxCell id="wNV12Ir-IpU6dme8vjzB-34" style="edgeStyle=orthogonalEdgeStyle;rounded=0;orthogonalLoop=1;jettySize=auto;html=1;exitX=0;exitY=1;exitDx=0;exitDy=0;entryX=1;entryY=0.25;entryDx=0;entryDy=0;endArrow=none;endFill=0;" parent="1" source="wNV12Ir-IpU6dme8vjzB-33" target="wNV12Ir-IpU6dme8vjzB-23" edge="1">
          <mxGeometry relative="1" as="geometry" />
        </mxCell>
        <mxCell id="wNV12Ir-IpU6dme8vjzB-33" value="emergencyContact" style="ellipse;whiteSpace=wrap;html=1;" parent="1" vertex="1">
          <mxGeometry x="1100" y="70" width="120" height="60" as="geometry" />
        </mxCell>
        <mxCell id="wNV12Ir-IpU6dme8vjzB-36" style="edgeStyle=orthogonalEdgeStyle;rounded=0;orthogonalLoop=1;jettySize=auto;html=1;exitX=0;exitY=1;exitDx=0;exitDy=0;entryX=0.633;entryY=-0.02;entryDx=0;entryDy=0;endArrow=none;endFill=0;entryPerimeter=0;" parent="1" source="wNV12Ir-IpU6dme8vjzB-35" target="wNV12Ir-IpU6dme8vjzB-23" edge="1">
          <mxGeometry relative="1" as="geometry">
            <Array as="points">
              <mxPoint x="858" y="160" />
              <mxPoint x="846" y="160" />
            </Array>
          </mxGeometry>
        </mxCell>
        <mxCell id="wNV12Ir-IpU6dme8vjzB-35" value="addressId" style="ellipse;whiteSpace=wrap;html=1;" parent="1" vertex="1">
          <mxGeometry x="840" y="50" width="120" height="50" as="geometry" />
        </mxCell>
        <mxCell id="wNV12Ir-IpU6dme8vjzB-38" style="edgeStyle=orthogonalEdgeStyle;rounded=0;orthogonalLoop=1;jettySize=auto;html=1;exitX=0;exitY=0.5;exitDx=0;exitDy=0;entryX=1;entryY=0.5;entryDx=0;entryDy=0;endArrow=none;endFill=0;" parent="1" source="wNV12Ir-IpU6dme8vjzB-37" target="wNV12Ir-IpU6dme8vjzB-23" edge="1">
          <mxGeometry relative="1" as="geometry" />
        </mxCell>
        <mxCell id="wNV12Ir-IpU6dme8vjzB-37" value="positionId" style="ellipse;whiteSpace=wrap;html=1;" parent="1" vertex="1">
          <mxGeometry x="1140" y="170" width="120" height="50" as="geometry" />
        </mxCell>
        <mxCell id="NVPOL3llyWoSoOOIBoV0-123" style="edgeStyle=orthogonalEdgeStyle;rounded=0;orthogonalLoop=1;jettySize=auto;html=1;exitX=0.5;exitY=0;exitDx=0;exitDy=0;entryX=0.75;entryY=1;entryDx=0;entryDy=0;endArrow=none;endFill=0;" parent="1" source="wNV12Ir-IpU6dme8vjzB-39" target="wNV12Ir-IpU6dme8vjzB-23" edge="1">
          <mxGeometry relative="1" as="geometry">
            <Array as="points">
              <mxPoint x="1050" y="460" />
              <mxPoint x="880" y="460" />
            </Array>
          </mxGeometry>
        </mxCell>
        <mxCell id="wNV12Ir-IpU6dme8vjzB-39" value="hireDate" style="ellipse;whiteSpace=wrap;html=1;" parent="1" vertex="1">
          <mxGeometry x="990" y="505" width="120" height="45" as="geometry" />
        </mxCell>
        <mxCell id="oiTjQ5BADp09H_yO9Pe6-4" value="gender" style="ellipse;whiteSpace=wrap;html=1;" parent="1" vertex="1">
          <mxGeometry x="700" y="497.5" width="120" height="60" as="geometry" />
        </mxCell>
        <mxCell id="oiTjQ5BADp09H_yO9Pe6-6" value="profileImage" style="ellipse;whiteSpace=wrap;html=1;" parent="1" vertex="1">
          <mxGeometry x="550" y="390" width="120" height="50" as="geometry" />
        </mxCell>
        <mxCell id="oiTjQ5BADp09H_yO9Pe6-8" value="dateOfBirth" style="ellipse;whiteSpace=wrap;html=1;" parent="1" vertex="1">
          <mxGeometry x="1130" y="250" width="120" height="50" as="geometry" />
        </mxCell>
        <mxCell id="oiTjQ5BADp09H_yO9Pe6-10" value="salart" style="ellipse;whiteSpace=wrap;html=1;" parent="1" vertex="1">
          <mxGeometry x="1130" y="390" width="120" height="50" as="geometry" />
        </mxCell>
        <mxCell id="iSLYOYeoJY8kRqykb5ny-4" style="edgeStyle=orthogonalEdgeStyle;rounded=0;orthogonalLoop=1;jettySize=auto;html=1;exitX=0.5;exitY=0;exitDx=0;exitDy=0;entryX=0.5;entryY=1;entryDx=0;entryDy=0;endArrow=ERmany;endFill=0;" parent="1" source="iSLYOYeoJY8kRqykb5ny-1" target="iSLYOYeoJY8kRqykb5ny-3" edge="1">
          <mxGeometry relative="1" as="geometry" />
        </mxCell>
        <mxCell id="iSLYOYeoJY8kRqykb5ny-1" value="has" style="rhombus;whiteSpace=wrap;html=1;fillColor=#1ba1e2;fontColor=#ffffff;strokeColor=#006EAF;" parent="1" vertex="1">
          <mxGeometry x="790" y="-60" width="80" height="80" as="geometry" />
        </mxCell>
        <mxCell id="NVPOL3llyWoSoOOIBoV0-5" style="edgeStyle=orthogonalEdgeStyle;rounded=0;orthogonalLoop=1;jettySize=auto;html=1;exitX=0.5;exitY=0;exitDx=0;exitDy=0;entryX=0;entryY=1;entryDx=0;entryDy=0;endArrow=none;endFill=0;" parent="1" source="iSLYOYeoJY8kRqykb5ny-3" target="NVPOL3llyWoSoOOIBoV0-4" edge="1">
          <mxGeometry relative="1" as="geometry" />
        </mxCell>
        <mxCell id="NVPOL3llyWoSoOOIBoV0-17" style="edgeStyle=orthogonalEdgeStyle;rounded=0;orthogonalLoop=1;jettySize=auto;html=1;exitX=1;exitY=0.5;exitDx=0;exitDy=0;endArrow=none;endFill=0;startArrow=ERmany;startFill=0;" parent="1" source="iSLYOYeoJY8kRqykb5ny-3" target="NVPOL3llyWoSoOOIBoV0-16" edge="1">
          <mxGeometry relative="1" as="geometry" />
        </mxCell>
        <mxCell id="iSLYOYeoJY8kRqykb5ny-3" value="&lt;font style=&quot;font-size: 15px;&quot;&gt;&lt;b&gt;Address&lt;/b&gt;&lt;/font&gt;" style="rounded=0;whiteSpace=wrap;html=1;fillColor=#d80073;fontColor=#ffffff;strokeColor=#A50040;" parent="1" vertex="1">
          <mxGeometry x="770" y="-330" width="120" height="60" as="geometry" />
        </mxCell>
        <mxCell id="NVPOL3llyWoSoOOIBoV0-3" style="edgeStyle=orthogonalEdgeStyle;rounded=0;orthogonalLoop=1;jettySize=auto;html=1;exitX=1;exitY=1;exitDx=0;exitDy=0;entryX=0;entryY=0;entryDx=0;entryDy=0;endArrow=none;endFill=0;" parent="1" source="iSLYOYeoJY8kRqykb5ny-5" target="iSLYOYeoJY8kRqykb5ny-3" edge="1">
          <mxGeometry relative="1" as="geometry" />
        </mxCell>
        <mxCell id="iSLYOYeoJY8kRqykb5ny-5" value="&lt;b&gt;&lt;u&gt;&lt;i&gt;addressId&lt;/i&gt;&lt;/u&gt;&lt;/b&gt;" style="ellipse;whiteSpace=wrap;html=1;" parent="1" vertex="1">
          <mxGeometry x="540" y="-460" width="120" height="60" as="geometry" />
        </mxCell>
        <mxCell id="NVPOL3llyWoSoOOIBoV0-1" value="createdAt" style="ellipse;whiteSpace=wrap;html=1;" parent="1" vertex="1">
          <mxGeometry x="410" y="145" width="120" height="55" as="geometry" />
        </mxCell>
        <mxCell id="NVPOL3llyWoSoOOIBoV0-4" value="propertyNumber" style="ellipse;whiteSpace=wrap;html=1;" parent="1" vertex="1">
          <mxGeometry x="800" y="-460" width="120" height="60" as="geometry" />
        </mxCell>
        <mxCell id="NVPOL3llyWoSoOOIBoV0-6" value="addressType" style="ellipse;whiteSpace=wrap;html=1;" parent="1" vertex="1">
          <mxGeometry x="540" y="-340" width="120" height="60" as="geometry" />
        </mxCell>
        <mxCell id="NVPOL3llyWoSoOOIBoV0-7" style="edgeStyle=orthogonalEdgeStyle;rounded=0;orthogonalLoop=1;jettySize=auto;html=1;exitX=1;exitY=0.5;exitDx=0;exitDy=0;entryX=-0.033;entryY=0.387;entryDx=0;entryDy=0;entryPerimeter=0;endArrow=none;endFill=0;" parent="1" source="NVPOL3llyWoSoOOIBoV0-6" target="iSLYOYeoJY8kRqykb5ny-3" edge="1">
          <mxGeometry relative="1" as="geometry" />
        </mxCell>
        <mxCell id="NVPOL3llyWoSoOOIBoV0-9" style="edgeStyle=orthogonalEdgeStyle;rounded=0;orthogonalLoop=1;jettySize=auto;html=1;exitX=1;exitY=0.5;exitDx=0;exitDy=0;entryX=0;entryY=0.75;entryDx=0;entryDy=0;endArrow=none;endFill=0;" parent="1" source="NVPOL3llyWoSoOOIBoV0-8" target="iSLYOYeoJY8kRqykb5ny-3" edge="1">
          <mxGeometry relative="1" as="geometry" />
        </mxCell>
        <mxCell id="NVPOL3llyWoSoOOIBoV0-8" value="streetNumber" style="ellipse;whiteSpace=wrap;html=1;" parent="1" vertex="1">
          <mxGeometry x="540" y="-250" width="120" height="60" as="geometry" />
        </mxCell>
        <mxCell id="NVPOL3llyWoSoOOIBoV0-12" style="edgeStyle=orthogonalEdgeStyle;rounded=0;orthogonalLoop=1;jettySize=auto;html=1;exitX=1;exitY=0.5;exitDx=0;exitDy=0;entryX=0;entryY=1;entryDx=0;entryDy=0;endArrow=none;endFill=0;" parent="1" source="NVPOL3llyWoSoOOIBoV0-10" target="iSLYOYeoJY8kRqykb5ny-3" edge="1">
          <mxGeometry relative="1" as="geometry" />
        </mxCell>
        <mxCell id="NVPOL3llyWoSoOOIBoV0-10" value="zipcode" style="ellipse;whiteSpace=wrap;html=1;" parent="1" vertex="1">
          <mxGeometry x="540" y="-160" width="120" height="60" as="geometry" />
        </mxCell>
        <mxCell id="NVPOL3llyWoSoOOIBoV0-15" style="edgeStyle=orthogonalEdgeStyle;rounded=0;orthogonalLoop=1;jettySize=auto;html=1;exitX=0.5;exitY=1;exitDx=0;exitDy=0;entryX=1;entryY=0;entryDx=0;entryDy=0;endArrow=none;endFill=0;" parent="1" source="NVPOL3llyWoSoOOIBoV0-13" target="iSLYOYeoJY8kRqykb5ny-3" edge="1">
          <mxGeometry relative="1" as="geometry" />
        </mxCell>
        <mxCell id="NVPOL3llyWoSoOOIBoV0-13" value="country" style="ellipse;whiteSpace=wrap;html=1;" parent="1" vertex="1">
          <mxGeometry x="950" y="-460" width="120" height="60" as="geometry" />
        </mxCell>
        <mxCell id="NVPOL3llyWoSoOOIBoV0-20" style="edgeStyle=orthogonalEdgeStyle;rounded=0;orthogonalLoop=1;jettySize=auto;html=1;exitX=1;exitY=0.5;exitDx=0;exitDy=0;entryX=0;entryY=0.5;entryDx=0;entryDy=0;endArrow=none;endFill=0;" parent="1" source="NVPOL3llyWoSoOOIBoV0-16" target="NVPOL3llyWoSoOOIBoV0-19" edge="1">
          <mxGeometry relative="1" as="geometry" />
        </mxCell>
        <mxCell id="NVPOL3llyWoSoOOIBoV0-16" value="has" style="rhombus;whiteSpace=wrap;html=1;fillColor=#1ba1e2;fontColor=#ffffff;strokeColor=#006EAF;" parent="1" vertex="1">
          <mxGeometry x="1130" y="-340" width="80" height="80" as="geometry" />
        </mxCell>
        <mxCell id="NVPOL3llyWoSoOOIBoV0-22" style="edgeStyle=orthogonalEdgeStyle;rounded=0;orthogonalLoop=1;jettySize=auto;html=1;exitX=0.25;exitY=0;exitDx=0;exitDy=0;entryX=0.5;entryY=1;entryDx=0;entryDy=0;endArrow=none;endFill=0;" parent="1" source="NVPOL3llyWoSoOOIBoV0-19" target="NVPOL3llyWoSoOOIBoV0-21" edge="1">
          <mxGeometry relative="1" as="geometry" />
        </mxCell>
        <mxCell id="NVPOL3llyWoSoOOIBoV0-24" style="edgeStyle=orthogonalEdgeStyle;rounded=0;orthogonalLoop=1;jettySize=auto;html=1;exitX=0.75;exitY=0;exitDx=0;exitDy=0;entryX=0;entryY=1;entryDx=0;entryDy=0;endArrow=none;endFill=0;" parent="1" source="NVPOL3llyWoSoOOIBoV0-19" target="NVPOL3llyWoSoOOIBoV0-23" edge="1">
          <mxGeometry relative="1" as="geometry" />
        </mxCell>
        <mxCell id="NVPOL3llyWoSoOOIBoV0-31" style="edgeStyle=orthogonalEdgeStyle;rounded=0;orthogonalLoop=1;jettySize=auto;html=1;exitX=1;exitY=0.5;exitDx=0;exitDy=0;entryX=0;entryY=0.5;entryDx=0;entryDy=0;endArrow=none;endFill=0;" parent="1" source="NVPOL3llyWoSoOOIBoV0-19" target="NVPOL3llyWoSoOOIBoV0-30" edge="1">
          <mxGeometry relative="1" as="geometry" />
        </mxCell>
        <mxCell id="NVPOL3llyWoSoOOIBoV0-19" value="&lt;span style=&quot;font-size: 15px;&quot;&gt;&lt;b&gt;AddressZipcode&lt;/b&gt;&lt;/span&gt;" style="rounded=0;whiteSpace=wrap;html=1;fillColor=#f0a30a;fontColor=#000000;strokeColor=#BD7000;" parent="1" vertex="1">
          <mxGeometry x="1380" y="-330" width="160" height="60" as="geometry" />
        </mxCell>
        <mxCell id="NVPOL3llyWoSoOOIBoV0-21" value="state" style="ellipse;whiteSpace=wrap;html=1;" parent="1" vertex="1">
          <mxGeometry x="1310" y="-460" width="120" height="60" as="geometry" />
        </mxCell>
        <mxCell id="NVPOL3llyWoSoOOIBoV0-23" value="city" style="ellipse;whiteSpace=wrap;html=1;" parent="1" vertex="1">
          <mxGeometry x="1490" y="-460" width="120" height="60" as="geometry" />
        </mxCell>
        <mxCell id="NVPOL3llyWoSoOOIBoV0-29" style="edgeStyle=orthogonalEdgeStyle;rounded=0;orthogonalLoop=1;jettySize=auto;html=1;exitX=1;exitY=0.5;exitDx=0;exitDy=0;entryX=0;entryY=0.5;entryDx=0;entryDy=0;endArrow=none;endFill=0;" parent="1" source="NVPOL3llyWoSoOOIBoV0-26" target="NVPOL3llyWoSoOOIBoV0-28" edge="1">
          <mxGeometry relative="1" as="geometry" />
        </mxCell>
        <mxCell id="NVPOL3llyWoSoOOIBoV0-26" value="has" style="rhombus;whiteSpace=wrap;html=1;fillColor=#1ba1e2;fontColor=#ffffff;strokeColor=#006EAF;" parent="1" vertex="1">
          <mxGeometry x="1360" y="310" width="100" height="80" as="geometry" />
        </mxCell>
        <mxCell id="NVPOL3llyWoSoOOIBoV0-27" style="edgeStyle=orthogonalEdgeStyle;rounded=0;orthogonalLoop=1;jettySize=auto;html=1;exitX=0;exitY=0.5;exitDx=0;exitDy=0;endArrow=ERmany;endFill=0;startArrow=none;startFill=0;" parent="1" source="NVPOL3llyWoSoOOIBoV0-26" edge="1">
          <mxGeometry relative="1" as="geometry">
            <mxPoint x="910" y="350" as="targetPoint" />
          </mxGeometry>
        </mxCell>
        <mxCell id="NVPOL3llyWoSoOOIBoV0-33" style="edgeStyle=orthogonalEdgeStyle;rounded=0;orthogonalLoop=1;jettySize=auto;html=1;exitX=0.25;exitY=0;exitDx=0;exitDy=0;entryX=0.5;entryY=1;entryDx=0;entryDy=0;endArrow=none;endFill=0;" parent="1" source="NVPOL3llyWoSoOOIBoV0-28" target="NVPOL3llyWoSoOOIBoV0-32" edge="1">
          <mxGeometry relative="1" as="geometry" />
        </mxCell>
        <mxCell id="NVPOL3llyWoSoOOIBoV0-35" style="edgeStyle=orthogonalEdgeStyle;rounded=0;orthogonalLoop=1;jettySize=auto;html=1;exitX=0.75;exitY=0;exitDx=0;exitDy=0;entryX=0.5;entryY=1;entryDx=0;entryDy=0;endArrow=none;endFill=0;" parent="1" source="NVPOL3llyWoSoOOIBoV0-28" target="NVPOL3llyWoSoOOIBoV0-34" edge="1">
          <mxGeometry relative="1" as="geometry" />
        </mxCell>
        <mxCell id="NVPOL3llyWoSoOOIBoV0-28" value="&lt;b&gt;&lt;font style=&quot;font-size: 15px;&quot;&gt;Position&lt;/font&gt;&lt;/b&gt;" style="rounded=0;whiteSpace=wrap;html=1;fillColor=#60a917;fontColor=#ffffff;strokeColor=#2D7600;" parent="1" vertex="1">
          <mxGeometry x="1750" y="320" width="120" height="60" as="geometry" />
        </mxCell>
        <mxCell id="NVPOL3llyWoSoOOIBoV0-30" value="&lt;b&gt;&lt;u&gt;&lt;i&gt;zipcode&lt;/i&gt;&lt;/u&gt;&lt;/b&gt;" style="ellipse;whiteSpace=wrap;html=1;" parent="1" vertex="1">
          <mxGeometry x="1580" y="-350" width="120" height="60" as="geometry" />
        </mxCell>
        <mxCell id="NVPOL3llyWoSoOOIBoV0-32" value="&lt;b&gt;&lt;u&gt;&lt;i&gt;positionId&lt;/i&gt;&lt;/u&gt;&lt;/b&gt;" style="ellipse;whiteSpace=wrap;html=1;" parent="1" vertex="1">
          <mxGeometry x="1710" y="195" width="120" height="60" as="geometry" />
        </mxCell>
        <mxCell id="NVPOL3llyWoSoOOIBoV0-34" value="positionTitle" style="ellipse;whiteSpace=wrap;html=1;" parent="1" vertex="1">
          <mxGeometry x="1870" y="200" width="120" height="60" as="geometry" />
        </mxCell>
        <mxCell id="NVPOL3llyWoSoOOIBoV0-41" style="edgeStyle=orthogonalEdgeStyle;rounded=0;orthogonalLoop=1;jettySize=auto;html=1;exitX=1;exitY=0;exitDx=0;exitDy=0;entryX=0;entryY=0.5;entryDx=0;entryDy=0;endArrow=none;endFill=0;" parent="1" source="NVPOL3llyWoSoOOIBoV0-36" target="NVPOL3llyWoSoOOIBoV0-40" edge="1">
          <mxGeometry relative="1" as="geometry" />
        </mxCell>
        <mxCell id="NVPOL3llyWoSoOOIBoV0-43" style="edgeStyle=orthogonalEdgeStyle;rounded=0;orthogonalLoop=1;jettySize=auto;html=1;exitX=0.5;exitY=1;exitDx=0;exitDy=0;entryX=0.5;entryY=0;entryDx=0;entryDy=0;endArrow=none;endFill=0;" parent="1" source="NVPOL3llyWoSoOOIBoV0-36" target="NVPOL3llyWoSoOOIBoV0-42" edge="1">
          <mxGeometry relative="1" as="geometry" />
        </mxCell>
        <mxCell id="NVPOL3llyWoSoOOIBoV0-45" style="edgeStyle=orthogonalEdgeStyle;rounded=0;orthogonalLoop=1;jettySize=auto;html=1;exitX=0;exitY=0.5;exitDx=0;exitDy=0;entryX=1;entryY=0.5;entryDx=0;entryDy=0;endArrow=none;endFill=0;" parent="1" source="NVPOL3llyWoSoOOIBoV0-36" target="NVPOL3llyWoSoOOIBoV0-44" edge="1">
          <mxGeometry relative="1" as="geometry" />
        </mxCell>
        <mxCell id="NVPOL3llyWoSoOOIBoV0-36" value="&lt;font style=&quot;font-size: 15px;&quot;&gt;&lt;b&gt;EmergencyContact&lt;/b&gt;&lt;/font&gt;" style="rounded=0;whiteSpace=wrap;html=1;fillColor=#ffcd28;strokeColor=#d79b00;gradientColor=#ffa500;" parent="1" vertex="1">
          <mxGeometry x="770" y="980" width="160" height="70" as="geometry" />
        </mxCell>
        <mxCell id="NVPOL3llyWoSoOOIBoV0-39" style="edgeStyle=orthogonalEdgeStyle;rounded=0;orthogonalLoop=1;jettySize=auto;html=1;exitX=0.5;exitY=1;exitDx=0;exitDy=0;endArrow=ERoneToMany;endFill=0;entryX=0.375;entryY=0.029;entryDx=0;entryDy=0;entryPerimeter=0;" parent="1" source="NVPOL3llyWoSoOOIBoV0-37" target="NVPOL3llyWoSoOOIBoV0-36" edge="1">
          <mxGeometry relative="1" as="geometry">
            <mxPoint x="830" y="970" as="targetPoint" />
          </mxGeometry>
        </mxCell>
        <mxCell id="NVPOL3llyWoSoOOIBoV0-37" value="has" style="rhombus;whiteSpace=wrap;html=1;fillColor=#1ba1e2;fontColor=#ffffff;strokeColor=#006EAF;" parent="1" vertex="1">
          <mxGeometry x="790" y="720" width="80" height="80" as="geometry" />
        </mxCell>
        <mxCell id="NVPOL3llyWoSoOOIBoV0-38" style="edgeStyle=orthogonalEdgeStyle;rounded=0;orthogonalLoop=1;jettySize=auto;html=1;exitX=0.5;exitY=0;exitDx=0;exitDy=0;entryX=0.333;entryY=1;entryDx=0;entryDy=0;entryPerimeter=0;endArrow=none;endFill=0;" parent="1" source="NVPOL3llyWoSoOOIBoV0-37" target="wNV12Ir-IpU6dme8vjzB-23" edge="1">
          <mxGeometry relative="1" as="geometry" />
        </mxCell>
        <mxCell id="NVPOL3llyWoSoOOIBoV0-40" value="&lt;b&gt;&lt;u&gt;&lt;i&gt;emergencyContactId&lt;/i&gt;&lt;/u&gt;&lt;/b&gt;" style="ellipse;whiteSpace=wrap;html=1;" parent="1" vertex="1">
          <mxGeometry x="950" y="920" width="120" height="60" as="geometry" />
        </mxCell>
        <mxCell id="NVPOL3llyWoSoOOIBoV0-42" value="relationship" style="ellipse;whiteSpace=wrap;html=1;" parent="1" vertex="1">
          <mxGeometry x="770" y="1120" width="120" height="60" as="geometry" />
        </mxCell>
        <mxCell id="NVPOL3llyWoSoOOIBoV0-44" value="contact" style="ellipse;whiteSpace=wrap;html=1;" parent="1" vertex="1">
          <mxGeometry x="580" y="980" width="120" height="70" as="geometry" />
        </mxCell>
        <mxCell id="NVPOL3llyWoSoOOIBoV0-52" style="edgeStyle=orthogonalEdgeStyle;rounded=0;orthogonalLoop=1;jettySize=auto;html=1;exitX=1;exitY=0.25;exitDx=0;exitDy=0;entryX=0;entryY=1;entryDx=0;entryDy=0;endArrow=none;endFill=0;" parent="1" source="NVPOL3llyWoSoOOIBoV0-46" target="NVPOL3llyWoSoOOIBoV0-50" edge="1">
          <mxGeometry relative="1" as="geometry" />
        </mxCell>
        <mxCell id="NVPOL3llyWoSoOOIBoV0-54" style="edgeStyle=orthogonalEdgeStyle;rounded=0;orthogonalLoop=1;jettySize=auto;html=1;exitX=1;exitY=1;exitDx=0;exitDy=0;entryX=0;entryY=0.5;entryDx=0;entryDy=0;endArrow=none;endFill=0;" parent="1" source="NVPOL3llyWoSoOOIBoV0-46" target="NVPOL3llyWoSoOOIBoV0-53" edge="1">
          <mxGeometry relative="1" as="geometry" />
        </mxCell>
        <mxCell id="NVPOL3llyWoSoOOIBoV0-46" value="&lt;font style=&quot;font-size: 15px;&quot;&gt;&lt;b&gt;Department&lt;/b&gt;&lt;/font&gt;" style="rounded=0;whiteSpace=wrap;html=1;fillColor=#0050ef;fontColor=#ffffff;strokeColor=#001DBC;" parent="1" vertex="1">
          <mxGeometry x="1460" y="660" width="120" height="60" as="geometry" />
        </mxCell>
        <mxCell id="NVPOL3llyWoSoOOIBoV0-49" style="edgeStyle=orthogonalEdgeStyle;rounded=0;orthogonalLoop=1;jettySize=auto;html=1;exitX=1;exitY=0.5;exitDx=0;exitDy=0;entryX=0.5;entryY=0;entryDx=0;entryDy=0;endArrow=ERmany;endFill=0;" parent="1" source="NVPOL3llyWoSoOOIBoV0-47" target="NVPOL3llyWoSoOOIBoV0-46" edge="1">
          <mxGeometry relative="1" as="geometry" />
        </mxCell>
        <mxCell id="NVPOL3llyWoSoOOIBoV0-47" value="has" style="rhombus;whiteSpace=wrap;html=1;fillColor=#1ba1e2;fontColor=#ffffff;strokeColor=#006EAF;" parent="1" vertex="1">
          <mxGeometry x="1260" y="520" width="80" height="80" as="geometry" />
        </mxCell>
        <mxCell id="NVPOL3llyWoSoOOIBoV0-48" style="edgeStyle=orthogonalEdgeStyle;rounded=0;orthogonalLoop=1;jettySize=auto;html=1;exitX=0;exitY=0.5;exitDx=0;exitDy=0;entryX=0.833;entryY=0.971;entryDx=0;entryDy=0;entryPerimeter=0;endArrow=ERmany;endFill=0;" parent="1" source="NVPOL3llyWoSoOOIBoV0-47" target="wNV12Ir-IpU6dme8vjzB-23" edge="1">
          <mxGeometry relative="1" as="geometry">
            <Array as="points">
              <mxPoint x="1260" y="450" />
              <mxPoint x="950" y="450" />
              <mxPoint x="950" y="364" />
              <mxPoint x="890" y="364" />
            </Array>
          </mxGeometry>
        </mxCell>
        <mxCell id="NVPOL3llyWoSoOOIBoV0-50" value="&lt;b&gt;&lt;u&gt;&lt;i&gt;departmentId&lt;/i&gt;&lt;/u&gt;&lt;/b&gt;" style="ellipse;whiteSpace=wrap;html=1;" parent="1" vertex="1">
          <mxGeometry x="1640" y="580" width="120" height="50" as="geometry" />
        </mxCell>
        <mxCell id="NVPOL3llyWoSoOOIBoV0-53" value="departmentName" style="ellipse;whiteSpace=wrap;html=1;" parent="1" vertex="1">
          <mxGeometry x="1650" y="720" width="120" height="60" as="geometry" />
        </mxCell>
        <mxCell id="NVPOL3llyWoSoOOIBoV0-60" style="edgeStyle=orthogonalEdgeStyle;rounded=0;orthogonalLoop=1;jettySize=auto;html=1;exitX=1;exitY=0.5;exitDx=0;exitDy=0;entryX=0;entryY=0.5;entryDx=0;entryDy=0;endArrow=ERone;endFill=0;" parent="1" source="NVPOL3llyWoSoOOIBoV0-55" target="NVPOL3llyWoSoOOIBoV0-59" edge="1">
          <mxGeometry relative="1" as="geometry" />
        </mxCell>
        <mxCell id="NVPOL3llyWoSoOOIBoV0-55" value="has" style="rhombus;whiteSpace=wrap;html=1;fillColor=#1ba1e2;fontColor=#ffffff;strokeColor=#006EAF;" parent="1" vertex="1">
          <mxGeometry x="1140" y="-150" width="80" height="80" as="geometry" />
        </mxCell>
        <mxCell id="NVPOL3llyWoSoOOIBoV0-67" style="edgeStyle=orthogonalEdgeStyle;rounded=0;orthogonalLoop=1;jettySize=auto;html=1;exitX=1;exitY=0.25;exitDx=0;exitDy=0;entryX=0;entryY=0.5;entryDx=0;entryDy=0;endArrow=none;endFill=0;" parent="1" source="NVPOL3llyWoSoOOIBoV0-59" target="NVPOL3llyWoSoOOIBoV0-62" edge="1">
          <mxGeometry relative="1" as="geometry" />
        </mxCell>
        <mxCell id="NVPOL3llyWoSoOOIBoV0-68" style="edgeStyle=orthogonalEdgeStyle;rounded=0;orthogonalLoop=1;jettySize=auto;html=1;exitX=1;exitY=0.5;exitDx=0;exitDy=0;entryX=0;entryY=0.5;entryDx=0;entryDy=0;endArrow=none;endFill=0;" parent="1" source="NVPOL3llyWoSoOOIBoV0-59" target="NVPOL3llyWoSoOOIBoV0-63" edge="1">
          <mxGeometry relative="1" as="geometry" />
        </mxCell>
        <mxCell id="NVPOL3llyWoSoOOIBoV0-69" style="edgeStyle=orthogonalEdgeStyle;rounded=0;orthogonalLoop=1;jettySize=auto;html=1;exitX=1;exitY=1;exitDx=0;exitDy=0;entryX=0;entryY=0;entryDx=0;entryDy=0;endArrow=none;endFill=0;" parent="1" source="NVPOL3llyWoSoOOIBoV0-59" target="NVPOL3llyWoSoOOIBoV0-64" edge="1">
          <mxGeometry relative="1" as="geometry" />
        </mxCell>
        <mxCell id="NVPOL3llyWoSoOOIBoV0-70" style="edgeStyle=orthogonalEdgeStyle;rounded=0;orthogonalLoop=1;jettySize=auto;html=1;exitX=0.5;exitY=1;exitDx=0;exitDy=0;entryX=0.5;entryY=0;entryDx=0;entryDy=0;endArrow=none;endFill=0;" parent="1" source="NVPOL3llyWoSoOOIBoV0-59" target="NVPOL3llyWoSoOOIBoV0-65" edge="1">
          <mxGeometry relative="1" as="geometry" />
        </mxCell>
        <mxCell id="NVPOL3llyWoSoOOIBoV0-59" value="&lt;font style=&quot;font-size: 15px;&quot;&gt;&lt;b&gt;Account&lt;/b&gt;&lt;/font&gt;" style="rounded=0;whiteSpace=wrap;html=1;fillColor=#1ba1e2;fontColor=#ffffff;strokeColor=#006EAF;" parent="1" vertex="1">
          <mxGeometry x="1400" y="-140" width="120" height="60" as="geometry" />
        </mxCell>
        <mxCell id="NVPOL3llyWoSoOOIBoV0-61" value="accountId" style="ellipse;whiteSpace=wrap;html=1;" parent="1" vertex="1">
          <mxGeometry x="1390" y="-240" width="120" height="60" as="geometry" />
        </mxCell>
        <mxCell id="NVPOL3llyWoSoOOIBoV0-62" value="bankName" style="ellipse;whiteSpace=wrap;html=1;" parent="1" vertex="1">
          <mxGeometry x="1610" y="-240" width="120" height="60" as="geometry" />
        </mxCell>
        <mxCell id="NVPOL3llyWoSoOOIBoV0-63" value="ifsc" style="ellipse;whiteSpace=wrap;html=1;" parent="1" vertex="1">
          <mxGeometry x="1610" y="-140" width="120" height="60" as="geometry" />
        </mxCell>
        <mxCell id="NVPOL3llyWoSoOOIBoV0-64" value="accountNumber" style="ellipse;whiteSpace=wrap;html=1;" parent="1" vertex="1">
          <mxGeometry x="1610" y="-50" width="120" height="60" as="geometry" />
        </mxCell>
        <mxCell id="NVPOL3llyWoSoOOIBoV0-65" value="branch" style="ellipse;whiteSpace=wrap;html=1;" parent="1" vertex="1">
          <mxGeometry x="1400" y="-40" width="120" height="60" as="geometry" />
        </mxCell>
        <mxCell id="NVPOL3llyWoSoOOIBoV0-66" style="edgeStyle=orthogonalEdgeStyle;rounded=0;orthogonalLoop=1;jettySize=auto;html=1;exitX=0.5;exitY=0;exitDx=0;exitDy=0;entryX=0.56;entryY=1.007;entryDx=0;entryDy=0;entryPerimeter=0;endArrow=none;endFill=0;" parent="1" source="NVPOL3llyWoSoOOIBoV0-59" target="NVPOL3llyWoSoOOIBoV0-61" edge="1">
          <mxGeometry relative="1" as="geometry" />
        </mxCell>
        <mxCell id="NVPOL3llyWoSoOOIBoV0-74" style="edgeStyle=orthogonalEdgeStyle;rounded=0;orthogonalLoop=1;jettySize=auto;html=1;exitX=0;exitY=0.5;exitDx=0;exitDy=0;entryX=0.5;entryY=1;entryDx=0;entryDy=0;endArrow=ERzeroToMany;endFill=0;" parent="1" source="NVPOL3llyWoSoOOIBoV0-71" target="NVPOL3llyWoSoOOIBoV0-73" edge="1">
          <mxGeometry relative="1" as="geometry" />
        </mxCell>
        <mxCell id="NVPOL3llyWoSoOOIBoV0-71" value="has" style="rhombus;whiteSpace=wrap;html=1;fillColor=#1ba1e2;fontColor=#ffffff;strokeColor=#006EAF;" parent="1" vertex="1">
          <mxGeometry x="250" y="-190" width="80" height="80" as="geometry" />
        </mxCell>
        <mxCell id="NVPOL3llyWoSoOOIBoV0-82" style="edgeStyle=orthogonalEdgeStyle;rounded=0;orthogonalLoop=1;jettySize=auto;html=1;exitX=0;exitY=0;exitDx=0;exitDy=0;entryX=1;entryY=1;entryDx=0;entryDy=0;endArrow=none;endFill=0;" parent="1" source="NVPOL3llyWoSoOOIBoV0-73" target="NVPOL3llyWoSoOOIBoV0-75" edge="1">
          <mxGeometry relative="1" as="geometry" />
        </mxCell>
        <mxCell id="NVPOL3llyWoSoOOIBoV0-83" style="edgeStyle=orthogonalEdgeStyle;rounded=0;orthogonalLoop=1;jettySize=auto;html=1;exitX=0;exitY=0.25;exitDx=0;exitDy=0;entryX=1;entryY=0.5;entryDx=0;entryDy=0;endArrow=none;endFill=0;" parent="1" source="NVPOL3llyWoSoOOIBoV0-73" target="NVPOL3llyWoSoOOIBoV0-76" edge="1">
          <mxGeometry relative="1" as="geometry" />
        </mxCell>
        <mxCell id="NVPOL3llyWoSoOOIBoV0-88" style="edgeStyle=orthogonalEdgeStyle;rounded=0;orthogonalLoop=1;jettySize=auto;html=1;exitX=0.25;exitY=0;exitDx=0;exitDy=0;entryX=0.5;entryY=1;entryDx=0;entryDy=0;endArrow=none;endFill=0;" parent="1" source="NVPOL3llyWoSoOOIBoV0-73" target="NVPOL3llyWoSoOOIBoV0-80" edge="1">
          <mxGeometry relative="1" as="geometry" />
        </mxCell>
        <mxCell id="NVPOL3llyWoSoOOIBoV0-73" value="&lt;b&gt;&lt;font style=&quot;font-size: 15px;&quot;&gt;Leave&lt;/font&gt;&lt;/b&gt;" style="rounded=0;whiteSpace=wrap;html=1;fillColor=#e3c800;fontColor=#000000;strokeColor=#B09500;" parent="1" vertex="1">
          <mxGeometry x="10" y="-380" width="120" height="60" as="geometry" />
        </mxCell>
        <mxCell id="NVPOL3llyWoSoOOIBoV0-75" value="&lt;b&gt;&lt;u&gt;&lt;i&gt;leaveId&lt;/i&gt;&lt;/u&gt;&lt;/b&gt;" style="ellipse;whiteSpace=wrap;html=1;" parent="1" vertex="1">
          <mxGeometry x="-200" y="-500" width="120" height="60" as="geometry" />
        </mxCell>
        <mxCell id="NVPOL3llyWoSoOOIBoV0-76" value="employeeId" style="ellipse;whiteSpace=wrap;html=1;" parent="1" vertex="1">
          <mxGeometry x="-200" y="-370" width="120" height="50" as="geometry" />
        </mxCell>
        <mxCell id="NVPOL3llyWoSoOOIBoV0-77" value="leaveType" style="ellipse;whiteSpace=wrap;html=1;" parent="1" vertex="1">
          <mxGeometry x="-200" y="-260" width="120" height="60" as="geometry" />
        </mxCell>
        <mxCell id="NVPOL3llyWoSoOOIBoV0-78" value="startDate" style="ellipse;whiteSpace=wrap;html=1;" parent="1" vertex="1">
          <mxGeometry x="-200" y="-150" width="120" height="60" as="geometry" />
        </mxCell>
        <mxCell id="NVPOL3llyWoSoOOIBoV0-86" style="edgeStyle=orthogonalEdgeStyle;rounded=0;orthogonalLoop=1;jettySize=auto;html=1;exitX=1;exitY=0;exitDx=0;exitDy=0;entryX=0.25;entryY=1;entryDx=0;entryDy=0;endArrow=none;endFill=0;" parent="1" source="NVPOL3llyWoSoOOIBoV0-79" target="NVPOL3llyWoSoOOIBoV0-73" edge="1">
          <mxGeometry relative="1" as="geometry" />
        </mxCell>
        <mxCell id="NVPOL3llyWoSoOOIBoV0-79" value="endDate" style="ellipse;whiteSpace=wrap;html=1;" parent="1" vertex="1">
          <mxGeometry x="-190" y="-40" width="120" height="60" as="geometry" />
        </mxCell>
        <mxCell id="NVPOL3llyWoSoOOIBoV0-80" value="status" style="ellipse;whiteSpace=wrap;html=1;" parent="1" vertex="1">
          <mxGeometry y="-510" width="120" height="60" as="geometry" />
        </mxCell>
        <mxCell id="NVPOL3llyWoSoOOIBoV0-81" value="reason" style="ellipse;whiteSpace=wrap;html=1;" parent="1" vertex="1">
          <mxGeometry x="170" y="-510" width="120" height="60" as="geometry" />
        </mxCell>
        <mxCell id="NVPOL3llyWoSoOOIBoV0-84" style="edgeStyle=orthogonalEdgeStyle;rounded=0;orthogonalLoop=1;jettySize=auto;html=1;exitX=0;exitY=0.75;exitDx=0;exitDy=0;entryX=0.993;entryY=0.327;entryDx=0;entryDy=0;entryPerimeter=0;endArrow=none;endFill=0;" parent="1" source="NVPOL3llyWoSoOOIBoV0-73" target="NVPOL3llyWoSoOOIBoV0-77" edge="1">
          <mxGeometry relative="1" as="geometry" />
        </mxCell>
        <mxCell id="NVPOL3llyWoSoOOIBoV0-85" style="edgeStyle=orthogonalEdgeStyle;rounded=0;orthogonalLoop=1;jettySize=auto;html=1;exitX=0;exitY=1;exitDx=0;exitDy=0;entryX=0.933;entryY=0.293;entryDx=0;entryDy=0;entryPerimeter=0;endArrow=none;endFill=0;" parent="1" source="NVPOL3llyWoSoOOIBoV0-73" target="NVPOL3llyWoSoOOIBoV0-78" edge="1">
          <mxGeometry relative="1" as="geometry">
            <Array as="points">
              <mxPoint x="10" y="-190" />
              <mxPoint x="-88" y="-190" />
            </Array>
          </mxGeometry>
        </mxCell>
        <mxCell id="NVPOL3llyWoSoOOIBoV0-89" style="edgeStyle=orthogonalEdgeStyle;rounded=0;orthogonalLoop=1;jettySize=auto;html=1;exitX=0.75;exitY=0;exitDx=0;exitDy=0;entryX=0.23;entryY=0.947;entryDx=0;entryDy=0;entryPerimeter=0;endArrow=none;endFill=0;" parent="1" source="NVPOL3llyWoSoOOIBoV0-73" target="NVPOL3llyWoSoOOIBoV0-81" edge="1">
          <mxGeometry relative="1" as="geometry" />
        </mxCell>
        <mxCell id="NVPOL3llyWoSoOOIBoV0-93" style="edgeStyle=orthogonalEdgeStyle;rounded=0;orthogonalLoop=1;jettySize=auto;html=1;exitX=0.5;exitY=1;exitDx=0;exitDy=0;entryX=1;entryY=0.5;entryDx=0;entryDy=0;endArrow=ERmany;endFill=0;" parent="1" source="NVPOL3llyWoSoOOIBoV0-90" target="NVPOL3llyWoSoOOIBoV0-92" edge="1">
          <mxGeometry relative="1" as="geometry" />
        </mxCell>
        <mxCell id="NVPOL3llyWoSoOOIBoV0-90" value="has" style="rhombus;whiteSpace=wrap;html=1;fillColor=#1ba1e2;fontColor=#ffffff;strokeColor=#006EAF;" parent="1" vertex="1">
          <mxGeometry x="470" y="800" width="80" height="80" as="geometry" />
        </mxCell>
        <mxCell id="NVPOL3llyWoSoOOIBoV0-92" value="&lt;b&gt;&lt;font style=&quot;font-size: 15px;&quot;&gt;Payroll&lt;/font&gt;&lt;/b&gt;" style="rounded=0;whiteSpace=wrap;html=1;fillColor=#76608a;fontColor=#ffffff;strokeColor=#432D57;" parent="1" vertex="1">
          <mxGeometry x="110" y="985" width="120" height="60" as="geometry" />
        </mxCell>
        <mxCell id="NVPOL3llyWoSoOOIBoV0-103" style="edgeStyle=orthogonalEdgeStyle;rounded=0;orthogonalLoop=1;jettySize=auto;html=1;exitX=1;exitY=1;exitDx=0;exitDy=0;entryX=0;entryY=0;entryDx=0;entryDy=0;endArrow=none;endFill=0;" parent="1" source="NVPOL3llyWoSoOOIBoV0-94" target="NVPOL3llyWoSoOOIBoV0-92" edge="1">
          <mxGeometry relative="1" as="geometry">
            <Array as="points">
              <mxPoint x="-8" y="940" />
              <mxPoint x="110" y="940" />
            </Array>
          </mxGeometry>
        </mxCell>
        <mxCell id="NVPOL3llyWoSoOOIBoV0-94" value="&lt;b&gt;&lt;u&gt;&lt;i&gt;payrollId&lt;/i&gt;&lt;/u&gt;&lt;/b&gt;" style="ellipse;whiteSpace=wrap;html=1;" parent="1" vertex="1">
          <mxGeometry x="-110" y="850" width="120" height="60" as="geometry" />
        </mxCell>
        <mxCell id="NVPOL3llyWoSoOOIBoV0-104" style="edgeStyle=orthogonalEdgeStyle;rounded=0;orthogonalLoop=1;jettySize=auto;html=1;exitX=0.5;exitY=1;exitDx=0;exitDy=0;entryX=0.25;entryY=0;entryDx=0;entryDy=0;endArrow=none;endFill=0;" parent="1" source="NVPOL3llyWoSoOOIBoV0-95" target="NVPOL3llyWoSoOOIBoV0-92" edge="1">
          <mxGeometry relative="1" as="geometry" />
        </mxCell>
        <mxCell id="NVPOL3llyWoSoOOIBoV0-95" value="employeeId" style="ellipse;whiteSpace=wrap;html=1;" parent="1" vertex="1">
          <mxGeometry x="75" y="847.5" width="120" height="60" as="geometry" />
        </mxCell>
        <mxCell id="NVPOL3llyWoSoOOIBoV0-106" style="edgeStyle=orthogonalEdgeStyle;rounded=0;orthogonalLoop=1;jettySize=auto;html=1;exitX=1;exitY=0.5;exitDx=0;exitDy=0;entryX=0;entryY=0.5;entryDx=0;entryDy=0;endArrow=none;endFill=0;" parent="1" source="NVPOL3llyWoSoOOIBoV0-97" target="NVPOL3llyWoSoOOIBoV0-92" edge="1">
          <mxGeometry relative="1" as="geometry" />
        </mxCell>
        <mxCell id="NVPOL3llyWoSoOOIBoV0-97" value="bonus" style="ellipse;whiteSpace=wrap;html=1;" parent="1" vertex="1">
          <mxGeometry x="-110" y="985" width="120" height="60" as="geometry" />
        </mxCell>
        <mxCell id="NVPOL3llyWoSoOOIBoV0-98" value="payDate" style="ellipse;whiteSpace=wrap;html=1;" parent="1" vertex="1">
          <mxGeometry x="250" y="845" width="120" height="65" as="geometry" />
        </mxCell>
        <mxCell id="NVPOL3llyWoSoOOIBoV0-107" style="edgeStyle=orthogonalEdgeStyle;rounded=0;orthogonalLoop=1;jettySize=auto;html=1;exitX=1;exitY=0;exitDx=0;exitDy=0;entryX=0;entryY=0.75;entryDx=0;entryDy=0;endArrow=none;endFill=0;" parent="1" source="NVPOL3llyWoSoOOIBoV0-99" target="NVPOL3llyWoSoOOIBoV0-92" edge="1">
          <mxGeometry relative="1" as="geometry" />
        </mxCell>
        <mxCell id="NVPOL3llyWoSoOOIBoV0-99" value="paymentMethod" style="ellipse;whiteSpace=wrap;html=1;" parent="1" vertex="1">
          <mxGeometry x="-110" y="1120" width="120" height="60" as="geometry" />
        </mxCell>
        <mxCell id="NVPOL3llyWoSoOOIBoV0-108" style="edgeStyle=orthogonalEdgeStyle;rounded=0;orthogonalLoop=1;jettySize=auto;html=1;exitX=0.5;exitY=0;exitDx=0;exitDy=0;entryX=0.5;entryY=1;entryDx=0;entryDy=0;endArrow=none;endFill=0;" parent="1" source="NVPOL3llyWoSoOOIBoV0-100" target="NVPOL3llyWoSoOOIBoV0-92" edge="1">
          <mxGeometry relative="1" as="geometry" />
        </mxCell>
        <mxCell id="NVPOL3llyWoSoOOIBoV0-100" value="deductionId" style="ellipse;whiteSpace=wrap;html=1;" parent="1" vertex="1">
          <mxGeometry x="110" y="1120" width="120" height="60" as="geometry" />
        </mxCell>
        <mxCell id="NVPOL3llyWoSoOOIBoV0-109" style="edgeStyle=orthogonalEdgeStyle;rounded=0;orthogonalLoop=1;jettySize=auto;html=1;exitX=0;exitY=0;exitDx=0;exitDy=0;entryX=1;entryY=1;entryDx=0;entryDy=0;endArrow=none;endFill=0;" parent="1" source="NVPOL3llyWoSoOOIBoV0-101" target="NVPOL3llyWoSoOOIBoV0-92" edge="1">
          <mxGeometry relative="1" as="geometry" />
        </mxCell>
        <mxCell id="NVPOL3llyWoSoOOIBoV0-101" value="payableAmount" style="ellipse;whiteSpace=wrap;html=1;" parent="1" vertex="1">
          <mxGeometry x="320" y="1110" width="120" height="60" as="geometry" />
        </mxCell>
        <mxCell id="NVPOL3llyWoSoOOIBoV0-105" style="edgeStyle=orthogonalEdgeStyle;rounded=0;orthogonalLoop=1;jettySize=auto;html=1;exitX=0;exitY=1;exitDx=0;exitDy=0;entryX=0.69;entryY=0.043;entryDx=0;entryDy=0;entryPerimeter=0;endArrow=none;endFill=0;" parent="1" source="NVPOL3llyWoSoOOIBoV0-98" target="NVPOL3llyWoSoOOIBoV0-92" edge="1">
          <mxGeometry relative="1" as="geometry" />
        </mxCell>
        <mxCell id="NVPOL3llyWoSoOOIBoV0-111" style="edgeStyle=orthogonalEdgeStyle;rounded=0;orthogonalLoop=1;jettySize=auto;html=1;exitX=0.5;exitY=0;exitDx=0;exitDy=0;entryX=0;entryY=1;entryDx=0;entryDy=0;endArrow=none;endFill=0;" parent="1" source="NVPOL3llyWoSoOOIBoV0-110" target="NVPOL3llyWoSoOOIBoV0-92" edge="1">
          <mxGeometry relative="1" as="geometry">
            <Array as="points">
              <mxPoint x="60" y="1170" />
              <mxPoint x="90" y="1170" />
              <mxPoint x="90" y="1045" />
            </Array>
          </mxGeometry>
        </mxCell>
        <mxCell id="NVPOL3llyWoSoOOIBoV0-110" value="has" style="rhombus;whiteSpace=wrap;html=1;fillColor=#1ba1e2;fontColor=#ffffff;strokeColor=#006EAF;" parent="1" vertex="1">
          <mxGeometry x="20" y="1250" width="80" height="80" as="geometry" />
        </mxCell>
        <mxCell id="NVPOL3llyWoSoOOIBoV0-113" style="edgeStyle=orthogonalEdgeStyle;rounded=0;orthogonalLoop=1;jettySize=auto;html=1;exitX=0.5;exitY=0;exitDx=0;exitDy=0;entryX=0.5;entryY=1;entryDx=0;entryDy=0;endArrow=none;endFill=0;startArrow=ERzeroToMany;startFill=0;" parent="1" source="NVPOL3llyWoSoOOIBoV0-112" target="NVPOL3llyWoSoOOIBoV0-110" edge="1">
          <mxGeometry relative="1" as="geometry" />
        </mxCell>
        <mxCell id="NVPOL3llyWoSoOOIBoV0-118" style="edgeStyle=orthogonalEdgeStyle;rounded=0;orthogonalLoop=1;jettySize=auto;html=1;exitX=0.5;exitY=1;exitDx=0;exitDy=0;entryX=0.5;entryY=0;entryDx=0;entryDy=0;endArrow=none;endFill=0;" parent="1" source="NVPOL3llyWoSoOOIBoV0-112" target="NVPOL3llyWoSoOOIBoV0-117" edge="1">
          <mxGeometry relative="1" as="geometry" />
        </mxCell>
        <mxCell id="NVPOL3llyWoSoOOIBoV0-121" style="edgeStyle=orthogonalEdgeStyle;rounded=0;orthogonalLoop=1;jettySize=auto;html=1;exitX=1;exitY=0.5;exitDx=0;exitDy=0;entryX=0;entryY=0.5;entryDx=0;entryDy=0;endArrow=none;endFill=0;" parent="1" source="NVPOL3llyWoSoOOIBoV0-112" target="NVPOL3llyWoSoOOIBoV0-120" edge="1">
          <mxGeometry relative="1" as="geometry" />
        </mxCell>
        <mxCell id="NVPOL3llyWoSoOOIBoV0-112" value="&lt;font style=&quot;font-size: 15px;&quot;&gt;&lt;b&gt;Deduction&lt;/b&gt;&lt;/font&gt;" style="rounded=0;whiteSpace=wrap;html=1;fillColor=#6a00ff;fontColor=#ffffff;strokeColor=#3700CC;" parent="1" vertex="1">
          <mxGeometry y="1490" width="120" height="60" as="geometry" />
        </mxCell>
        <mxCell id="NVPOL3llyWoSoOOIBoV0-119" style="edgeStyle=orthogonalEdgeStyle;rounded=0;orthogonalLoop=1;jettySize=auto;html=1;exitX=1;exitY=0.5;exitDx=0;exitDy=0;entryX=0;entryY=0.25;entryDx=0;entryDy=0;endArrow=none;endFill=0;" parent="1" source="NVPOL3llyWoSoOOIBoV0-114" target="NVPOL3llyWoSoOOIBoV0-112" edge="1">
          <mxGeometry relative="1" as="geometry" />
        </mxCell>
        <mxCell id="NVPOL3llyWoSoOOIBoV0-114" value="&lt;b&gt;&lt;u&gt;&lt;i&gt;deductionId&lt;/i&gt;&lt;/u&gt;&lt;/b&gt;" style="ellipse;whiteSpace=wrap;html=1;" parent="1" vertex="1">
          <mxGeometry x="-210" y="1480" width="120" height="60" as="geometry" />
        </mxCell>
        <mxCell id="NVPOL3llyWoSoOOIBoV0-117" value="deductionType" style="ellipse;whiteSpace=wrap;html=1;" parent="1" vertex="1">
          <mxGeometry y="1610" width="120" height="60" as="geometry" />
        </mxCell>
        <mxCell id="NVPOL3llyWoSoOOIBoV0-120" value="deductionAmount" style="ellipse;whiteSpace=wrap;html=1;" parent="1" vertex="1">
          <mxGeometry x="170" y="1490" width="120" height="60" as="geometry" />
        </mxCell>
        <mxCell id="NVPOL3llyWoSoOOIBoV0-127" style="edgeStyle=orthogonalEdgeStyle;rounded=0;orthogonalLoop=1;jettySize=auto;html=1;exitX=0.5;exitY=1;exitDx=0;exitDy=0;entryX=0.5;entryY=0;entryDx=0;entryDy=0;" parent="1" source="NVPOL3llyWoSoOOIBoV0-124" target="NVPOL3llyWoSoOOIBoV0-126" edge="1">
          <mxGeometry relative="1" as="geometry" />
        </mxCell>
        <mxCell id="NVPOL3llyWoSoOOIBoV0-124" value="has" style="rhombus;whiteSpace=wrap;html=1;fillColor=#1ba1e2;fontColor=#ffffff;strokeColor=#006EAF;" parent="1" vertex="1">
          <mxGeometry x="1210" y="760" width="80" height="80" as="geometry" />
        </mxCell>
        <mxCell id="NVPOL3llyWoSoOOIBoV0-125" style="edgeStyle=orthogonalEdgeStyle;rounded=0;orthogonalLoop=1;jettySize=auto;html=1;exitX=0.5;exitY=0;exitDx=0;exitDy=0;entryX=0.63;entryY=1.04;entryDx=0;entryDy=0;entryPerimeter=0;endArrow=ERmandOne;endFill=0;startArrow=ERmany;startFill=0;" parent="1" source="NVPOL3llyWoSoOOIBoV0-124" target="wNV12Ir-IpU6dme8vjzB-23" edge="1">
          <mxGeometry relative="1" as="geometry">
            <Array as="points">
              <mxPoint x="980" y="760" />
              <mxPoint x="980" y="500" />
              <mxPoint x="866" y="500" />
            </Array>
          </mxGeometry>
        </mxCell>
        <mxCell id="NVPOL3llyWoSoOOIBoV0-136" style="edgeStyle=orthogonalEdgeStyle;rounded=0;orthogonalLoop=1;jettySize=auto;html=1;exitX=0.75;exitY=0;exitDx=0;exitDy=0;entryX=0;entryY=0.5;entryDx=0;entryDy=0;endArrow=none;endFill=0;" parent="1" source="NVPOL3llyWoSoOOIBoV0-126" target="NVPOL3llyWoSoOOIBoV0-135" edge="1">
          <mxGeometry relative="1" as="geometry" />
        </mxCell>
        <mxCell id="NVPOL3llyWoSoOOIBoV0-137" style="edgeStyle=orthogonalEdgeStyle;rounded=0;orthogonalLoop=1;jettySize=auto;html=1;exitX=1;exitY=0.25;exitDx=0;exitDy=0;entryX=0;entryY=0.5;entryDx=0;entryDy=0;endArrow=none;endFill=0;" parent="1" source="NVPOL3llyWoSoOOIBoV0-126" target="NVPOL3llyWoSoOOIBoV0-130" edge="1">
          <mxGeometry relative="1" as="geometry" />
        </mxCell>
        <mxCell id="NVPOL3llyWoSoOOIBoV0-138" style="edgeStyle=orthogonalEdgeStyle;rounded=0;orthogonalLoop=1;jettySize=auto;html=1;exitX=1;exitY=0.75;exitDx=0;exitDy=0;entryX=0;entryY=0.5;entryDx=0;entryDy=0;endArrow=none;endFill=0;" parent="1" source="NVPOL3llyWoSoOOIBoV0-126" target="NVPOL3llyWoSoOOIBoV0-131" edge="1">
          <mxGeometry relative="1" as="geometry" />
        </mxCell>
        <mxCell id="NVPOL3llyWoSoOOIBoV0-139" style="edgeStyle=orthogonalEdgeStyle;rounded=0;orthogonalLoop=1;jettySize=auto;html=1;exitX=1;exitY=1;exitDx=0;exitDy=0;entryX=0;entryY=0;entryDx=0;entryDy=0;endArrow=none;endFill=0;" parent="1" source="NVPOL3llyWoSoOOIBoV0-126" target="NVPOL3llyWoSoOOIBoV0-134" edge="1">
          <mxGeometry relative="1" as="geometry" />
        </mxCell>
        <mxCell id="NVPOL3llyWoSoOOIBoV0-140" style="edgeStyle=orthogonalEdgeStyle;rounded=0;orthogonalLoop=1;jettySize=auto;html=1;exitX=0.25;exitY=1;exitDx=0;exitDy=0;entryX=0.5;entryY=0;entryDx=0;entryDy=0;endArrow=none;endFill=0;" parent="1" source="NVPOL3llyWoSoOOIBoV0-126" target="NVPOL3llyWoSoOOIBoV0-133" edge="1">
          <mxGeometry relative="1" as="geometry" />
        </mxCell>
        <mxCell id="NVPOL3llyWoSoOOIBoV0-141" style="edgeStyle=orthogonalEdgeStyle;rounded=0;orthogonalLoop=1;jettySize=auto;html=1;exitX=0;exitY=0.5;exitDx=0;exitDy=0;entryX=1;entryY=0.5;entryDx=0;entryDy=0;endArrow=none;endFill=0;" parent="1" source="NVPOL3llyWoSoOOIBoV0-126" target="NVPOL3llyWoSoOOIBoV0-132" edge="1">
          <mxGeometry relative="1" as="geometry" />
        </mxCell>
        <mxCell id="NVPOL3llyWoSoOOIBoV0-126" value="&lt;b&gt;&lt;font style=&quot;font-size: 15px;&quot;&gt;Performance&lt;/font&gt;&lt;/b&gt;" style="rounded=0;whiteSpace=wrap;html=1;fillColor=#fa6800;fontColor=#000000;strokeColor=#C73500;" parent="1" vertex="1">
          <mxGeometry x="1190" y="1080" width="120" height="60" as="geometry" />
        </mxCell>
        <mxCell id="NVPOL3llyWoSoOOIBoV0-130" value="&lt;b&gt;&lt;u&gt;&lt;i&gt;performanceId&lt;/i&gt;&lt;/u&gt;&lt;/b&gt;" style="ellipse;whiteSpace=wrap;html=1;" parent="1" vertex="1">
          <mxGeometry x="1370" y="1000" width="120" height="60" as="geometry" />
        </mxCell>
        <mxCell id="NVPOL3llyWoSoOOIBoV0-131" value="employeeId" style="ellipse;whiteSpace=wrap;html=1;" parent="1" vertex="1">
          <mxGeometry x="1380" y="1100" width="120" height="60" as="geometry" />
        </mxCell>
        <mxCell id="NVPOL3llyWoSoOOIBoV0-132" value="reviewDate" style="ellipse;whiteSpace=wrap;html=1;" parent="1" vertex="1">
          <mxGeometry x="980" y="1110" width="120" height="60" as="geometry" />
        </mxCell>
        <mxCell id="NVPOL3llyWoSoOOIBoV0-133" value="reviewerId" style="ellipse;whiteSpace=wrap;html=1;" parent="1" vertex="1">
          <mxGeometry x="1140" y="1220" width="120" height="70" as="geometry" />
        </mxCell>
        <mxCell id="NVPOL3llyWoSoOOIBoV0-134" value="rating" style="ellipse;whiteSpace=wrap;html=1;" parent="1" vertex="1">
          <mxGeometry x="1330" y="1210" width="120" height="70" as="geometry" />
        </mxCell>
        <mxCell id="NVPOL3llyWoSoOOIBoV0-135" value="comments" style="ellipse;whiteSpace=wrap;html=1;" parent="1" vertex="1">
          <mxGeometry x="1350" y="890" width="120" height="70" as="geometry" />
        </mxCell>
        <mxCell id="3z962iHV7Wqosz7Bl_AG-2" style="edgeStyle=orthogonalEdgeStyle;rounded=0;orthogonalLoop=1;jettySize=auto;html=1;exitX=0.5;exitY=0;exitDx=0;exitDy=0;entryX=0.25;entryY=1;entryDx=0;entryDy=0;endArrow=none;endFill=0;" edge="1" parent="1" source="3z962iHV7Wqosz7Bl_AG-1" target="NVPOL3llyWoSoOOIBoV0-46">
          <mxGeometry relative="1" as="geometry" />
        </mxCell>
        <mxCell id="3z962iHV7Wqosz7Bl_AG-1" value="managerId" style="ellipse;whiteSpace=wrap;html=1;" vertex="1" parent="1">
          <mxGeometry x="1440" y="780" width="120" height="50" as="geometry" />
        </mxCell>
      </root>
    </mxGraphModel>
  </diagram>
</mxfile>
